<?xml version="1.0" standalone="no"?>
<!DOCTYPE svg PUBLIC "-//W3C//DTD SVG 20010904//EN"
 "http://www.w3.org/TR/2001/REC-SVG-20010904/DTD/svg10.dtd">
<svg version="1.0" xmlns="http://www.w3.org/2000/svg"
 width="177.000000pt" height="177.000000pt" viewBox="0 0 177.000000 177.000000"
 preserveAspectRatio="xMidYMid meet">
<metadata>
Created by potrace 1.11, written by Peter Selinger 2001-2013
</metadata>
<g transform="translate(0.000000,177.000000) scale(0.100000,-0.100000)"
fill="#000000" stroke="none">
<path d="M902 1413 c13 -3 15 -10 8 -33 -5 -17 -5 -32 0 -35 10 -6 24 51 15
65 -3 5 -14 9 -23 9 -16 -1 -16 -2 0 -6z"/>
<path d="M850 1391 c-17 -33 -11 -56 19 -74 32 -19 49 -53 33 -69 -5 -5 -22
-8 -38 -6 -24 2 -29 8 -29 31 1 32 -3 33 -21 10 -30 -42 64 -75 98 -35 18 20
15 52 -5 63 -7 5 -24 16 -35 26 -20 17 -21 20 -8 46 8 15 11 27 6 27 -5 0 -14
-9 -20 -19z"/>
<path d="M597 1359 c-22 -11 -37 -23 -34 -26 3 -2 14 0 24 6 17 9 20 3 35 -65
14 -67 14 -77 1 -90 -25 -25 -7 -27 34 -4 33 18 35 20 10 15 -17 -3 -26 -2
-23 4 3 5 -2 41 -11 80 -16 69 -16 71 3 86 28 21 5 18 -39 -6z"/>
<path d="M1082 1305 c-35 -36 -59 -65 -53 -65 6 0 11 -7 11 -15 0 -8 8 -15 18
-14 10 0 12 3 5 6 -7 2 -13 9 -13 15 0 17 35 55 46 51 14 -5 64 53 64 73 0 24
-11 17 -78 -51z m62 33 c-13 -24 -37 -48 -47 -48 -6 0 2 14 18 30 31 32 41 38
29 18z"/>
<path d="M1003 1313 c-7 -3 -13 -17 -13 -33 0 -16 -7 -30 -15 -34 -17 -6 -21
19 -5 29 6 3 10 11 10 16 0 14 -18 2 -29 -20 -15 -28 1 -44 31 -30 45 20 64
88 21 72z m8 -36 c-8 -8 -11 -7 -11 4 0 20 13 34 18 19 3 -7 -1 -17 -7 -23z"/>
<path d="M735 1290 c-4 -6 -13 -9 -21 -6 -9 3 -14 -1 -14 -13 0 -11 -3 -26 -6
-35 -3 -9 -1 -16 5 -16 6 0 13 11 17 25 3 14 15 30 25 36 16 8 19 6 19 -15 0
-14 4 -28 10 -31 6 -4 9 7 7 27 -3 33 -28 50 -42 28z"/>
<path d="M1120 1252 c-25 -12 -34 -23 -32 -37 4 -20 19 -35 37 -35 6 1 2 5 -7
11 -27 15 -22 37 12 54 35 18 43 19 38 3 -3 -7 -18 -16 -34 -19 -27 -6 -27 -7
-4 -8 34 -1 54 13 47 33 -8 20 -14 20 -57 -2z"/>
<path d="M565 1111 c-23 -10 -49 -38 -58 -63 -12 -35 59 -68 147 -68 71 0 79
-6 115 -82 21 -43 41 -63 41 -39 0 5 12 13 27 18 l27 9 -22 22 c-24 24 -26 30
-13 51 8 13 12 13 26 1 15 -12 16 -8 10 51 -12 120 4 109 -148 108 -72 0 -141
-4 -152 -8z m273 -75 c5 -26 -11 -38 -32 -23 -11 8 -15 19 -10 30 8 23 38 18
42 -7z"/>
<path d="M807 1043 c-11 -10 -8 -20 8 -27 10 -4 15 1 15 14 0 20 -11 26 -23
13z"/>
<path d="M864 1103 c3 -10 8 -49 11 -87 3 -38 13 -82 21 -98 15 -29 17 -30 70
-23 46 5 54 4 54 -10 0 -9 -4 -13 -10 -10 -13 8 -70 -23 -70 -38 0 -27 17 -39
37 -28 16 8 24 7 35 -7 9 -9 13 -23 11 -30 -3 -7 -2 -20 2 -30 5 -9 8 -25 9
-34 1 -10 3 -17 6 -15 11 5 98 -66 109 -89 6 -13 18 -24 26 -24 9 0 26 -5 37
-11 15 -8 17 -13 8 -19 -9 -6 -7 -10 9 -15 11 -3 21 -11 21 -16 0 -5 5 -9 10
-9 8 0 10 88 8 275 l-3 275 -28 27 -27 28 -176 3 c-166 3 -175 2 -170 -15z"/>
<path d="M500 772 l0 -248 29 -17 c38 -22 38 -22 46 16 12 57 77 180 116 222
22 22 39 48 39 57 0 24 14 30 35 14 20 -14 15 -46 -7 -46 -9 0 -9 3 0 12 7 7
12 17 12 22 0 19 -49 -61 -81 -133 -17 -39 -35 -71 -40 -71 -4 0 -17 -20 -27
-44 -11 -24 -25 -47 -31 -50 -21 -14 -10 -25 71 -75 45 -28 78 -51 72 -51 -5
0 -42 20 -82 45 -64 40 -73 43 -79 28 -3 -10 -8 -21 -10 -25 -2 -3 17 -20 42
-37 39 -26 55 -31 108 -31 47 0 58 3 47 11 -12 8 -9 9 10 3 14 -4 84 -9 157
-11 l132 -5 7 36 c3 20 4 43 0 51 -7 19 -40 19 -56 0 -7 -8 -9 -15 -5 -15 5 0
0 -9 -9 -19 -18 -20 -46 -18 -46 3 0 8 -11 11 -30 8 -19 -3 -30 0 -30 7 0 7 5
9 12 5 6 -4 8 -3 5 3 -4 6 2 22 13 36 16 20 17 26 6 30 -17 7 -36 -11 -36 -35
0 -13 -7 -18 -27 -17 -24 2 -25 2 -5 6 31 6 28 22 -4 18 -25 -2 -24 0 17 36
36 32 41 40 30 53 -17 20 -51 4 -51 -23 0 -22 -25 -45 -40 -36 -16 10 -12 21
21 69 31 43 33 71 4 59 -8 -3 -15 -14 -15 -24 0 -10 -5 -19 -10 -19 -6 0 -9 5
-8 11 2 6 -3 14 -11 16 -10 4 -11 -1 -6 -18 6 -19 5 -21 -5 -13 -13 13 -5 54
11 54 15 0 49 33 49 48 0 14 -25 13 -62 -3 -24 -10 -36 22 -16 42 12 12 20 13
36 4 30 -16 40 -14 45 12 l4 22 2 -22 c1 -24 8 -27 35 -17 21 8 20 26 -4 54
-11 13 -20 31 -20 42 0 12 -7 18 -21 18 -22 0 -22 -7 -4 -55 15 -37 -66 86
-85 130 -21 49 -28 52 -128 58 -44 2 -71 10 -92 25 l-30 23 0 -249z m210 97
c0 -10 -4 -20 -9 -24 -6 -3 -9 6 -8 19 1 14 -2 25 -8 25 -5 0 -10 -8 -9 -19 0
-10 -3 -17 -8 -14 -13 8 -9 42 5 47 17 6 37 -12 37 -34z"/>
<path d="M836 952 c-3 -6 -1 -14 5 -17 15 -10 25 3 12 16 -7 7 -13 7 -17 1z"/>
<path d="M866 931 c-8 -13 3 -38 19 -45 11 -4 12 1 3 25 -11 31 -14 34 -22 20z"/>
<path d="M893 821 c8 -40 12 -45 25 -37 13 8 4 42 -16 58 -14 11 -15 9 -9 -21z"/>
<path d="M946 782 c2 -3 0 -10 -6 -16 -5 -7 -5 -18 -1 -25 7 -10 11 -8 16 9 4
12 3 25 -2 30 -6 4 -8 5 -7 2z"/>
<path d="M765 720 c-4 -6 -3 -16 3 -22 13 -13 23 4 13 21 -7 10 -10 10 -16 1z"/>
<path d="M873 706 c-13 -6 -23 -14 -23 -19 0 -7 17 0 50 23 20 13 1 11 -27 -4z"/>
<path d="M988 703 c-9 -2 -34 -28 -56 -57 -30 -40 -38 -56 -30 -69 14 -26 35
-20 77 22 56 56 65 75 43 93 -9 8 -25 13 -34 11z"/>
<path d="M1065 595 c-30 -15 -95 -81 -95 -97 0 -19 57 -5 111 28 69 42 75 49
55 69 -18 19 -33 19 -71 0z"/>
<path d="M1112 513 c-58 -34 -61 -38 -46 -55 12 -13 15 -28 10 -58 -4 -24 -2
-40 4 -40 5 0 10 7 10 14 0 23 58 62 122 82 32 11 58 24 58 29 0 11 -73 65
-87 65 -5 0 -36 -17 -71 -37z"/>
<path d="M820 530 c-8 -5 -11 -12 -7 -16 4 -4 13 -2 19 4 15 15 7 24 -12 12z"/>
<path d="M500 481 c0 -39 17 -48 42 -23 l21 20 -32 16 -31 17 0 -30z"/>
<path d="M949 474 c-10 -13 -10 -20 2 -39 15 -26 31 -33 37 -15 2 6 -2 9 -10
8 -15 -3 -12 33 4 43 5 4 3 9 -5 12 -9 3 -21 -1 -28 -9z"/>
<path d="M553 393 c0 -23 15 -33 52 -33 l30 0 -37 25 c-44 30 -45 30 -45 8z"/>
</g>
</svg>
